<?xml version="1.0" standalone="no"?>
<!DOCTYPE svg PUBLIC "-//W3C//DTD SVG 20010904//EN"
 "http://www.w3.org/TR/2001/REC-SVG-20010904/DTD/svg10.dtd">
<svg version="1.0" xmlns="http://www.w3.org/2000/svg"
 width="2496.000000pt" height="2496.000000pt" viewBox="0 0 2496.000000 2496.000000"
 preserveAspectRatio="xMidYMid meet">
<metadata>
Created by potrace 1.14, written by Peter Selinger 2001-2017
</metadata>
<g transform="translate(0.000000,2496.000000) scale(0.100000,-0.100000)"
fill="#000000" stroke="none">
<path d="M12287 23744 c-1 -1 -71 -5 -156 -9 -85 -4 -162 -8 -172 -10 -10 -2
-69 -7 -131 -10 -62 -4 -121 -9 -130 -11 -33 -6 -264 -17 -413 -19 -99 -1
-193 -10 -275 -24 -69 -12 -141 -24 -160 -27 -19 -3 -57 -9 -85 -14 -27 -5
-63 -11 -80 -13 -16 -3 -46 -8 -65 -11 -19 -3 -48 -8 -65 -11 -16 -3 -59 -10
-95 -16 -36 -6 -74 -13 -85 -14 -11 -2 -33 -6 -50 -9 -16 -4 -49 -9 -71 -12
-23 -2 -50 -6 -60 -8 -11 -2 -57 -11 -104 -20 -47 -9 -161 -36 -255 -61 -93
-25 -177 -47 -185 -50 -420 -107 -1200 -388 -1685 -608 -66 -30 -142 -64 -170
-77 -89 -39 -497 -245 -595 -300 -178 -99 -305 -173 -461 -271 -86 -54 -194
-116 -240 -139 -157 -79 -239 -135 -369 -251 -47 -42 -102 -79 -185 -123 -79
-43 -179 -117 -440 -325 -268 -214 -274 -220 -483 -426 -680 -669 -897 -897
-1026 -1079 -31 -42 -54 -66 -65 -64 -21 4 -47 -15 -150 -109 -201 -184 -286
-283 -358 -414 -23 -41 -68 -111 -100 -155 -87 -119 -86 -116 -198 -320 -49
-90 -77 -126 -161 -211 -96 -98 -104 -109 -155 -220 -60 -135 -91 -189 -167
-290 -76 -102 -81 -122 -78 -291 l4 -142 -112 -67 c-61 -37 -126 -79 -145 -94
-50 -41 -95 -109 -141 -217 -49 -114 -125 -269 -180 -367 -43 -76 -75 -167
-110 -313 -18 -76 -35 -114 -87 -200 -94 -155 -96 -159 -147 -370 -39 -158
-60 -221 -115 -345 -80 -178 -132 -323 -155 -427 -21 -97 -27 -188 -12 -197
11 -7 56 -6 108 3 l27 4 -15 -42 c-20 -59 -32 -86 -145 -311 -54 -108 -107
-226 -118 -261 -19 -62 -24 -86 -36 -191 -3 -27 -8 -59 -10 -70 -2 -11 -4 -25
-4 -30 -1 -6 -16 -35 -35 -64 -37 -56 -40 -72 -50 -266 -3 -49 -13 -114 -21
-144 -42 -140 -42 -139 -42 -1670 l0 -1467 23 -115 c13 -63 26 -124 28 -135 2
-12 7 -48 11 -80 4 -33 8 -69 10 -81 4 -23 31 -84 67 -148 21 -36 23 -55 25
-185 5 -326 27 -445 119 -634 39 -81 45 -102 44 -152 -2 -108 0 -119 45 -209
31 -62 58 -142 89 -260 40 -152 89 -313 162 -535 44 -131 103 -211 171 -229
46 -13 70 -4 82 31 15 42 14 65 -3 71 -35 14 -106 194 -123 312 -3 22 -7 42
-9 44 -3 3 10 19 27 37 l32 33 -40 50 c-33 41 -41 61 -47 108 -4 32 -16 90
-27 128 -28 98 -80 266 -90 290 -16 40 -129 382 -154 470 -49 169 -54 221 -51
485 2 135 5 245 5 245 1 0 21 1 46 2 25 0 45 -2 46 -5 1 -4 2 -36 4 -72 3 -55
10 -99 40 -235 3 -10 7 -37 10 -60 3 -22 8 -47 10 -55 2 -8 6 -44 10 -80 3
-36 8 -81 10 -100 2 -19 7 -57 10 -85 12 -101 16 -131 31 -202 8 -40 21 -93
30 -119 15 -44 20 -74 23 -121 1 -28 38 -66 56 -59 12 4 14 -8 11 -60 -3 -47
1 -74 14 -102 10 -20 24 -64 31 -97 7 -33 20 -67 28 -76 9 -8 36 -45 59 -81
37 -56 46 -81 61 -165 19 -106 63 -208 113 -264 40 -43 83 -133 112 -231 49
-168 65 -210 92 -249 29 -42 44 -46 24 -7 -10 19 -10 21 1 11 10 -10 13 -67
13 -242 l1 -230 33 -34 c20 -20 42 -61 57 -102 17 -49 39 -86 77 -129 83 -93
93 -108 94 -141 2 -39 21 -85 34 -85 5 0 10 6 10 13 0 7 9 31 21 52 11 22 22
58 23 80 5 80 15 82 81 14 54 -57 59 -66 61 -113 5 -84 15 -140 29 -163 8 -12
42 -52 75 -90 49 -54 120 -173 120 -199 0 -16 54 -79 98 -114 29 -23 52 -47
52 -54 0 -7 6 -20 13 -30 13 -18 36 -22 165 -27 44 -2 59 -8 82 -31 16 -15 35
-28 42 -28 8 0 25 -24 39 -52 23 -51 26 -53 69 -58 l45 -5 -3 -43 -4 -42 45 0
c27 0 67 10 102 26 l57 26 -5 51 c-4 29 -15 62 -26 76 -34 43 -58 93 -69 147
-6 28 -20 76 -32 106 -26 70 -77 117 -295 269 -121 84 -170 113 -200 117 -22
3 -53 14 -69 25 -27 19 -28 22 -24 88 3 49 9 76 24 96 34 46 66 55 198 57
l121 2 3 68 c3 61 0 70 -26 104 -52 66 -65 100 -58 157 5 46 0 63 -40 156 -25
57 -57 133 -71 169 -14 36 -29 70 -33 75 -21 29 -30 124 -28 305 3 221 -8 274
-62 307 -16 9 -31 28 -34 42 -3 14 -4 101 -4 192 l2 167 -66 56 c-37 31 -82
74 -102 97 -35 41 -40 53 -67 152 -16 56 -19 59 -79 76 -104 29 -160 99 -176
219 l-7 54 49 -5 c62 -6 92 -19 127 -52 27 -26 121 -75 145 -75 9 0 11 36 10
158 -3 149 -5 160 -31 215 -26 53 -29 71 -32 188 -4 104 -8 138 -26 179 -15
34 -26 49 -36 46 -39 -15 -48 105 -48 634 0 654 8 741 72 796 33 28 36 35 38
90 2 78 -9 131 -46 228 -48 124 -39 233 40 474 45 135 59 198 65 280 4 39 9
104 12 144 3 39 12 84 20 100 13 26 67 68 86 68 36 0 62 -196 62 -470 0 -262
-11 -322 -74 -394 -43 -49 -48 -105 -24 -263 22 -141 22 -158 4 -293 -18 -132
-16 -169 10 -211 48 -79 82 -174 106 -294 2 -11 6 -31 10 -45 3 -14 7 -38 10
-53 13 -68 36 -125 87 -210 60 -100 99 -210 91 -254 -3 -15 -14 -41 -24 -58
-10 -16 -23 -49 -29 -72 -10 -37 -9 -48 8 -80 36 -68 62 -90 136 -111 111 -33
108 -27 109 -183 l1 -134 -51 -79 c-34 -52 -49 -83 -43 -90 6 -6 29 -39 53
-74 36 -52 43 -69 38 -95 -3 -18 -5 -63 -5 -102 0 -62 4 -76 32 -120 49 -78
55 -116 36 -240 -18 -111 -6 -195 40 -285 19 -36 46 -101 60 -145 15 -44 38
-100 52 -123 34 -60 43 -93 49 -196 6 -104 25 -160 103 -306 56 -105 56 -105
57 -200 1 -65 7 -108 19 -135 63 -146 193 -384 285 -525 60 -91 122 -194 138
-230 16 -36 38 -85 49 -110 12 -25 34 -76 51 -115 122 -280 295 -508 568 -746
168 -147 208 -192 254 -287 103 -214 259 -377 460 -483 62 -32 124 -82 194
-153 282 -291 498 -520 538 -571 31 -40 48 -95 37 -123 -12 -31 -11 -146 2
-202 14 -62 46 -99 358 -411 152 -151 308 -309 347 -351 39 -42 80 -80 91 -86
10 -6 66 -18 124 -28 57 -9 107 -19 111 -23 8 -7 16 -221 17 -445 l1 -129 83
-81 c50 -49 103 -91 135 -105 50 -24 52 -26 52 -66 l0 -42 178 -2 c233 -3 246
2 332 128 28 40 52 65 60 63 8 -2 26 -6 40 -9 14 -2 59 -13 101 -23 81 -21
115 -28 138 -29 8 -1 46 -34 85 -74 39 -41 90 -87 113 -104 40 -28 45 -30 87
-20 40 9 49 7 93 -18 26 -16 108 -91 182 -167 73 -76 148 -147 165 -157 29
-18 55 -19 397 -19 429 0 423 1 426 -77 0 -28 2 -57 2 -66 1 -16 76 -43 92
-33 4 2 -3 -26 -16 -64 -13 -37 -19 -71 -15 -76 5 -5 79 -10 164 -11 151 -1
156 -1 157 19 1 12 2 67 4 123 2 97 4 105 49 200 25 54 54 112 63 128 40 74
46 91 52 149 4 34 6 98 6 144 0 66 3 82 15 83 8 1 29 3 45 4 17 2 54 6 83 9
80 9 99 15 111 42 18 41 52 47 266 50 203 2 269 12 259 39 -9 22 47 129 111
213 2 2 34 -4 71 -14 55 -13 115 -16 289 -14 283 2 338 4 351 12 6 4 14 4 18
1 3 -4 160 -7 349 -8 271 -2 349 1 377 12 19 8 37 17 40 21 35 47 124 64 346
66 l161 1 43 35 c67 55 74 59 90 60 46 1 220 155 249 220 18 42 19 64 5 160
-16 112 0 290 26 290 10 0 58 96 66 130 2 14 9 45 14 70 13 66 24 92 56 123
46 47 83 60 164 62 61 2 76 5 85 20 5 11 21 28 34 40 14 11 45 40 70 64 25 24
59 51 76 61 l30 17 2 139 c3 189 10 236 39 280 20 29 26 51 27 101 l2 65 120
-5 c146 -7 190 -19 230 -63 24 -26 39 -34 66 -34 40 1 39 0 161 111 207 188
210 195 214 445 1 95 5 178 9 185 6 8 13 5 26 -12 l18 -24 9 25 c9 24 16 65
27 165 3 25 7 66 10 93 6 50 39 168 60 217 7 17 30 68 51 115 44 101 83 173
137 255 46 71 56 92 71 165 15 66 14 182 -1 187 -43 15 -56 53 -57 165 -1 48
3 60 26 81 18 17 29 40 34 73 8 47 9 206 4 349 -2 39 0 89 3 113 9 54 36 165
45 178 4 6 35 18 70 26 l63 16 -5 -32 c-19 -113 -26 -474 -12 -616 8 -89 21
-149 34 -162 11 -11 65 40 86 81 20 38 31 95 17 87 -18 -11 -13 17 18 116 74
232 99 369 106 566 4 134 9 150 81 259 19 29 42 69 50 88 13 32 17 35 58 35
l44 0 -1 -457 0 -457 28 -17 c30 -19 60 -13 123 24 33 19 60 22 238 26 25 1
33 6 36 26 3 13 0 26 -6 29 -6 2 -6 5 -1 5 6 1 10 55 9 144 -1 208 24 291 96
311 41 12 54 -3 71 -83 26 -123 8 -300 -41 -405 l-28 -60 38 -44 c42 -47 69
-114 71 -177 0 -22 -2 -148 -5 -280 -3 -132 -7 -433 -8 -670 -2 -472 3 -426
-68 -580 -18 -38 -43 -94 -57 -124 -34 -74 -39 -117 -37 -351 l1 -205 44 -62
c39 -57 41 -65 30 -87 -11 -20 -10 -29 4 -60 21 -43 22 -44 69 -52 129 -20
166 -5 277 112 156 163 217 221 249 233 19 7 50 20 67 28 40 19 550 524 562
556 5 12 12 61 16 110 l7 87 126 128 127 127 1 300 c0 165 3 310 8 322 4 12
16 25 28 28 26 9 63 91 79 175 6 36 14 68 18 72 3 4 26 10 52 13 l45 6 -3 -48
c-23 -402 -3 -653 55 -661 34 -5 81 24 75 47 -7 27 19 33 159 37 l118 3 -5
-26 c-19 -108 -19 -112 10 -123 45 -17 54 -13 51 23 -4 44 11 105 32 132 10
12 51 51 92 86 170 146 221 210 251 313 11 39 23 78 26 86 3 8 7 21 9 28 4 23
49 75 134 157 115 112 216 233 239 288 11 26 43 80 70 120 98 146 161 258 218
389 31 73 78 168 103 211 92 161 117 195 188 268 64 65 73 79 221 361 35 68
68 111 141 186 78 79 100 108 118 157 12 34 53 101 93 155 80 106 98 138 139
248 57 154 160 339 181 327 11 -7 10 -13 9 145 -1 139 12 217 41 251 10 12 20
34 20 48 1 14 3 42 4 61 1 19 5 109 9 200 8 192 14 236 29 221 21 -21 35 -11
58 39 22 49 27 53 80 53 21 0 22 12 21 554 0 352 3 465 13 512 17 72 113 271
130 271 7 0 15 11 17 24 3 13 5 576 5 1250 l0 1226 -127 127 c-70 71 -135 144
-145 163 -27 51 -27 218 1 380 3 19 7 240 8 490 2 399 4 460 18 493 10 20 24
40 33 43 29 11 45 60 45 137 l0 73 79 0 c85 0 85 0 64 -59 -4 -12 -7 -123 -8
-246 l-1 -225 38 -34 c52 -47 61 -85 63 -252 2 -184 11 -207 122 -299 71 -58
101 -112 109 -194 6 -52 18 -78 184 -392 30 -55 64 -110 77 -122 27 -26 27
-16 7 -100 -11 -47 -15 -107 -14 -198 2 -71 3 -1019 4 -2106 1 -1577 4 -1975
14 -1972 6 3 12 -2 12 -10 0 -20 -17 -31 -22 -15 -4 12 -32 -38 -163 -287 -32
-60 -67 -122 -77 -137 -11 -16 -17 -28 -15 -28 11 0 -34 -173 -54 -207 -12
-21 -40 -53 -63 -72 -22 -18 -104 -93 -181 -166 l-140 -133 -2 -131 c-1 -119
-3 -135 -28 -188 -25 -52 -28 -70 -30 -185 l-3 -128 -38 -33 c-22 -19 -102
-96 -178 -172 l-140 -139 -3 -150 c-5 -186 0 -216 31 -216 38 0 56 -22 62 -76
6 -50 5 -52 -29 -78 -44 -34 -63 -80 -71 -176 -15 -159 -73 -268 -233 -434
-65 -67 -95 -106 -102 -133 -6 -21 -44 -95 -85 -165 -99 -169 -106 -190 -105
-340 1 -126 -7 -175 -41 -250 -14 -31 -20 -66 -20 -123 l0 -80 -51 -30 c-29
-16 -77 -57 -108 -90 -75 -80 -210 -215 -299 -298 l-72 -67 2 -149 c2 -83 0
-152 -2 -154 -3 -2 -32 -21 -64 -41 -79 -50 -82 -54 -89 -109 -11 -78 -46
-139 -95 -164 -24 -12 -49 -27 -57 -33 -18 -15 -48 -117 -42 -142 6 -22 -58
-92 -156 -171 -109 -87 -132 -134 -111 -230 7 -34 13 -65 14 -68 0 -3 -30 -30
-67 -59 -69 -55 -652 -634 -678 -673 -8 -12 -18 -41 -23 -64 -8 -35 -7 -42 7
-45 27 -7 353 -2 403 6 32 5 45 11 42 20 -12 31 42 66 169 110 98 35 127 35
174 4 60 -40 77 -42 93 -13 13 24 213 232 300 311 25 23 81 80 125 127 274
291 1051 1080 1103 1120 17 13 21 24 16 40 -3 12 -7 23 -8 23 0 1 -23 5 -51 9
-91 14 -153 8 -208 -19 -75 -36 -210 -171 -357 -355 -19 -25 -40 -49 -46 -55
-6 -6 -49 -69 -97 -141 -152 -227 -244 -313 -354 -331 l-41 -6 4 53 c9 110 35
158 134 243 25 21 97 89 161 150 63 61 145 139 182 173 37 35 67 71 67 81 0
19 6 26 88 105 78 75 96 121 95 242 -1 55 -4 141 -7 191 -3 50 -2 102 1 115 4
13 70 89 147 169 78 81 156 172 175 204 36 61 71 155 71 192 0 17 10 26 48 39
46 17 48 19 47 54 -1 20 3 51 7 70 8 30 12 33 37 28 27 -6 29 -5 26 29 -3 55
38 126 86 147 23 10 39 24 40 34 3 72 11 118 29 166 22 59 93 172 139 222 86
93 157 225 216 399 51 154 82 216 348 696 17 30 41 75 54 100 14 25 39 59 57
76 18 17 37 46 42 65 9 29 14 34 36 31 23 -2 27 2 33 37 6 37 9 40 46 46 23 4
43 14 49 26 6 11 11 96 11 200 l0 180 37 37 c43 43 63 100 61 170 -2 38 4 58
22 83 32 46 46 56 104 70 28 7 52 14 55 15 12 3 70 26 70 27 1 1 3 83 6 182 4
138 11 209 30 305 55 271 95 336 267 434 110 63 116 67 154 100 58 51 77 140
60 285 -5 36 -10 67 -12 71 -5 8 -14 76 -20 145 -7 92 15 167 111 373 19 41
34 75 34 77 0 2 32 70 71 152 157 330 151 300 158 693 9 462 7 1789 -2 1825
-19 78 -19 76 -46 170 -28 102 -40 176 -46 300 -17 353 -18 367 -66 543 -11
42 -27 102 -35 132 -8 30 -26 93 -40 140 -14 47 -27 92 -29 100 -2 8 -27 98
-55 199 -29 101 -53 189 -55 195 -13 62 -58 200 -205 626 -111 322 -185 539
-235 685 -20 61 -43 124 -51 142 -8 17 -14 36 -14 42 0 13 -33 72 -62 112 -12
16 -49 50 -82 76 -84 66 -110 93 -133 139 -26 51 -60 151 -78 228 -13 56 -17
75 -31 161 -3 17 -10 48 -16 70 -5 22 -11 45 -13 50 -11 49 -79 177 -146 275
-32 47 -111 173 -176 280 -64 107 -171 275 -237 373 -152 223 -204 305 -247
387 -48 92 -88 154 -197 304 -204 281 -275 360 -706 791 -193 193 -396 398
-451 456 -329 349 -595 620 -741 759 -52 49 -819 635 -1053 805 -76 55 -245
166 -316 207 -151 88 -211 119 -653 339 -243 121 -482 242 -530 268 -48 26
-127 69 -177 96 -269 145 -354 182 -645 277 -102 33 -279 92 -395 130 -115 38
-217 71 -225 73 -8 2 -42 12 -75 23 -148 50 -637 185 -750 208 -11 2 -29 6
-40 8 -127 27 -282 57 -312 62 -47 7 -82 13 -109 18 -12 2 -39 7 -60 10 -22 4
-93 15 -159 26 -66 10 -142 22 -170 26 -27 3 -59 8 -70 10 -19 4 -181 25 -305
40 -30 3 -176 8 -325 9 -148 2 -292 6 -320 9 -62 7 -126 13 -230 22 -44 4 -91
8 -105 10 -65 8 -467 23 -473 18z m4698 -1068 c55 -23 69 -63 68 -185 -1 -57
-5 -107 -10 -111 -4 -5 -38 -17 -74 -28 -54 -17 -74 -19 -112 -10 -45 9 -47
11 -48 46 -1 20 -2 48 -4 62 -1 14 -6 73 -10 133 l-7 107 81 0 c48 0 96 -6
116 -14z m-235 -1272 c0 2 21 -4 48 -14 l47 -18 -1 -71 c-1 -74 -13 -113 -51
-171 -56 -86 -159 -111 -192 -46 -15 30 -16 44 -7 102 6 41 4 59 -10 85 -16
33 -16 33 7 48 13 8 40 32 60 52 41 42 58 50 82 37 9 -5 17 -7 17 -4z m-342
-894 c1 0 7 0 12 0 15 0 10 -98 -5 -110 -7 -6 -25 -5 -48 2 l-37 11 0 58 0 57
38 -9 c20 -4 38 -8 40 -9z m-6619 -3292 c0 -29 -8 -73 -17 -98 -15 -38 -25
-49 -72 -72 -30 -15 -54 -31 -53 -36 1 -5 -18 -2 -43 6 -24 8 -44 17 -44 21 0
3 8 41 19 83 30 125 51 146 154 147 l57 1 -1 -52z m2609 -28 c17 -11 32 -23
33 -27 11 -88 4 -100 -65 -105 l-55 -3 -14 50 c-12 43 -12 53 2 77 19 34 52
36 99 8z m1448 -235 c13 -15 24 -33 24 -38 0 -22 -85 -119 -119 -137 -20 -10
-62 -21 -93 -24 l-57 -7 -26 53 c-15 29 -30 57 -35 62 -5 5 -4 20 1 35 6 14
11 28 12 31 1 3 33 13 71 23 39 10 76 21 82 25 7 4 36 7 64 6 43 0 55 -5 76
-29z m-404 -370 c33 1 59 -3 61 -9 2 -6 3 -36 2 -66 -1 -43 -4 -54 -15 -51
-55 13 -111 29 -114 32 -4 4 -9 73 -7 99 1 9 4 11 9 5 4 -6 33 -10 64 -10z
m-5954 -270 c7 -7 5 -399 -2 -473 -9 -101 -46 -209 -94 -278 -22 -33 -46 -79
-52 -102 -17 -67 -15 -432 5 -632 2 -19 6 -107 10 -195 4 -88 7 -162 7 -165 0
-3 0 -17 -1 -32 -1 -25 -2 -26 -38 -17 -80 21 -90 32 -99 107 -5 35 -28 105
-92 278 -24 64 -30 94 -28 144 3 74 -23 140 -75 190 -43 40 -55 38 -58 -11 -1
-23 -10 -62 -20 -88 -19 -51 -128 -234 -142 -239 -5 -2 -9 -10 -9 -17 0 -7
-26 -40 -57 -72 -41 -42 -73 -65 -110 -78 l-52 -19 -6 -55 c-8 -78 -55 -161
-79 -142 -6 4 -43 21 -83 36 -79 31 -79 28 -1 84 46 33 58 53 58 99 0 13 9 37
21 53 17 25 20 39 15 81 -4 28 -11 57 -16 63 -7 9 2 33 29 80 22 38 44 72 49
77 17 17 -11 57 -47 69 -65 22 -141 6 -250 -52 l-101 -53 -15 -53 c-9 -29 -25
-68 -36 -88 l-21 -34 -30 32 c-47 50 -58 85 -57 188 0 85 -1 94 -23 110 -12
10 -25 17 -28 16 -3 0 -14 2 -26 6 -19 7 -20 11 -11 60 l9 52 39 -3 c32 -3 39
-1 40 14 0 11 2 29 3 41 3 28 -10 133 -18 140 -6 6 -37 10 -88 12 -24 1 -26 4
-19 24 5 12 9 25 9 30 0 4 3 21 7 37 7 30 7 30 63 24 30 -3 75 -14 98 -24 91
-42 175 -49 289 -25 98 21 181 19 261 -6 38 -12 74 -25 80 -30 12 -10 137 -40
179 -43 17 -1 36 2 43 7 7 6 12 6 12 0 0 -13 103 3 139 22 36 18 48 33 65 82
27 77 34 135 21 191 -7 30 -6 32 19 32 43 0 66 17 66 49 0 51 32 139 90 252 4
8 13 42 20 75 12 64 26 114 41 155 9 23 14 25 52 22 23 -3 43 -6 45 -8z m7195
-407 c29 -46 57 -89 61 -96 7 -11 -2 -12 -45 -7 -30 4 -55 8 -56 9 -1 1 -5 38
-8 81 -4 44 -9 83 -11 87 -3 5 -3 8 0 8 3 0 30 -37 59 -82z m4729 11 c53 -14
70 -50 66 -142 l-3 -72 -72 -3 c-66 -3 -75 -1 -97 21 -29 29 -46 84 -46 152
l0 50 57 2 c31 2 74 -2 95 -8z m-14810 -136 c6 -30 -11 -133 -25 -154 -8 -10
-29 -29 -48 -41 -41 -28 -102 -142 -105 -198 -1 -26 -14 -56 -45 -99 -45 -64
-71 -79 -144 -82 -75 -4 -85 5 -112 102 -4 13 -7 50 -7 81 -1 68 23 100 87
117 57 15 77 32 160 140 86 112 123 137 224 150 6 0 13 -7 15 -16z m4086 -999
c6 -84 -81 -143 -218 -148 -29 -1 -35 2 -34 19 2 102 93 178 204 172 l45 -2 3
-41z m10888 -199 c-9 -95 -72 -254 -125 -317 -13 -15 -17 -9 -41 65 l-27 82
26 50 c18 34 26 68 27 105 1 30 2 58 3 62 1 7 30 12 100 15 l43 2 -6 -64z
m1082 -2196 c2 -14 -17 -81 -41 -150 -24 -68 -47 -144 -50 -169 -9 -73 -26
-110 -50 -111 -12 0 -37 -2 -55 -3 -25 -2 -31 1 -28 13 5 18 10 58 26 211 13
126 27 184 49 204 16 14 100 34 131 31 8 -1 16 -13 18 -26z m-13511 -13 c34
-30 121 -171 111 -182 -2 -1 -60 -4 -128 -6 l-125 -3 -3 87 -3 86 43 25 c24
14 48 25 54 26 6 1 29 -15 51 -33z m2071 -1220 c9 -3 35 -7 57 -11 22 -3 72
-15 112 -27 71 -21 73 -22 88 -67 22 -64 19 -78 -15 -90 -35 -12 -36 -19 -13
-60 13 -21 27 -31 47 -33 23 -2 36 -13 57 -50 l28 -47 -27 12 c-101 44 -190
92 -208 112 -12 13 -25 21 -30 17 -4 -4 -4 -1 0 5 11 21 -23 80 -54 93 -41 17
-81 63 -86 101 -3 19 -7 39 -9 46 -4 11 12 11 53 -1z m460 -485 c8 -1 10 -9 7
-24 -4 -13 -8 -32 -10 -43 -2 -10 -4 -21 -4 -23 -1 -5 -71 82 -71 89 0 4 16 4
78 1z m342 -106 c0 -8 -6 -15 -14 -15 -17 0 -28 14 -19 24 12 12 33 6 33 -9z
m-7495 -2417 l10 -33 96 -5 c106 -6 98 3 85 -84 -4 -29 -1 -45 10 -58 13 -14
15 -30 10 -80 -4 -35 -9 -85 -12 -113 -12 -121 -38 -240 -57 -263 -14 -18 -72
-7 -109 19 -18 13 -53 73 -107 184 -67 139 -81 175 -86 231 -4 52 -2 70 10 84
8 9 23 41 33 70 17 48 22 55 58 66 21 6 41 12 44 13 3 1 10 -14 15 -31z
m12025 -493 c3 -17 5 -106 4 -200 -3 -195 8 -272 38 -296 31 -24 40 -99 16
-130 l-19 -23 45 -23 c32 -16 48 -31 52 -51 4 -15 10 -31 14 -37 32 -44 44
-449 27 -900 -9 -227 -12 -240 -43 -243 -54 -4 -145 -88 -252 -234 -40 -54
-74 -98 -77 -98 -2 0 -14 18 -25 40 -26 50 -38 149 -20 160 16 10 -1 86 -18
83 -9 -2 -9 4 0 25 7 17 10 79 8 172 -8 390 -2 810 15 960 2 19 6 63 10 98 8
88 18 108 59 123 36 13 36 14 37 74 2 103 1 216 -1 335 -1 63 1 124 3 135 3
11 6 23 6 27 2 20 33 34 72 33 40 -1 44 -3 49 -30z m3522 -664 c4 -57 10 -76
32 -101 14 -17 26 -35 27 -38 1 -11 6 -34 14 -64 7 -26 5 -28 -21 -29 -16 -1
-36 -2 -44 -3 -8 -1 -31 4 -50 10 -63 21 -70 23 -74 21 -3 -1 -17 16 -31 38
-25 36 -27 44 -21 105 11 100 33 124 121 129 l42 2 5 -70z m-13036 -543 c31
-29 73 -74 93 -99 33 -41 37 -52 35 -95 -1 -27 -3 -57 -3 -66 -1 -14 -6 -15
-32 -8 -67 20 -122 73 -144 141 -18 54 -28 179 -14 179 5 0 35 -24 65 -52z
m2857 -630 c37 -9 39 -11 33 -41 -3 -18 -8 -63 -11 -102 -4 -38 -8 -77 -10
-85 -2 -8 -7 -55 -11 -105 -3 -49 -8 -93 -10 -96 -3 -6 -82 -5 -88 2 -5 5 -12
117 -22 320 l-6 137 44 -11 c23 -5 60 -14 81 -19z m6621 -515 c15 -47 7 -113
-24 -203 -18 -52 -38 -98 -44 -102 -6 -4 -28 -8 -48 -8 -44 0 -55 16 -52 75 1
22 2 68 3 103 1 50 5 64 19 69 20 8 62 50 62 63 0 7 17 12 67 19 6 0 14 -7 17
-16z m-7806 -284 c47 -25 75 -54 158 -158 78 -97 103 -137 108 -168 7 -36 11
-41 46 -52 29 -8 41 -19 49 -42 6 -16 37 -56 71 -87 l60 -57 0 -61 c0 -68 5
-63 -104 -108 -47 -19 -46 -19 -46 -2 0 8 -22 22 -52 32 -37 12 -69 34 -110
74 -32 31 -61 54 -65 51 -3 -3 -2 1 3 9 11 19 14 40 6 41 -4 1 -20 3 -37 4
-46 4 -46 4 -42 13 4 6 0 45 -16 179 -2 18 -11 41 -19 50 -8 10 -25 37 -38 60
-20 36 -30 43 -73 54 -27 6 -45 14 -40 18 5 3 9 38 8 76 0 39 1 78 3 88 7 27
65 21 130 -14z m7638 -520 c38 -16 70 -32 73 -34 4 -5 -47 -76 -63 -87 -6 -4
-31 -8 -56 -8 -43 1 -46 2 -64 42 -15 32 -17 44 -7 57 6 9 16 26 23 39 6 12
15 22 19 22 4 0 38 -14 75 -31z m-2872 -730 c-8 -24 -17 -53 -19 -64 -14 -72
-21 -138 -20 -182 1 -45 -1 -53 -22 -62 -38 -17 -50 -13 -64 22 -17 41 -19
187 -3 250 14 55 14 54 14 67 0 7 113 19 128 14 1 0 -5 -21 -14 -45z m-3424
-675 c64 -8 67 -9 73 -42 5 -22 13 -31 35 -35 29 -6 49 -37 53 -82 3 -47 3
-47 -68 -40 -108 11 -179 59 -201 135 -7 25 -16 53 -19 64 -5 17 -1 18 38 12
24 -3 64 -9 89 -12z m620 -444 c37 -34 41 -43 35 -67 -3 -15 -11 -34 -17 -40
-23 -28 -111 -2 -120 35 -7 24 30 112 47 112 6 0 31 -18 55 -40z m-247 -15
c46 -30 48 -87 5 -114 -25 -16 -98 -32 -99 -22 0 3 -2 15 -4 26 -4 21 -8 102
-6 122 2 18 71 10 104 -12z"/>
<path d="M22083 6433 c-76 -97 -203 -296 -203 -317 0 -27 -49 -75 -96 -94 -27
-11 -31 -18 -33 -59 -2 -38 -12 -60 -61 -127 -82 -114 -140 -224 -146 -283 -6
-46 -5 -49 21 -58 27 -10 39 1 399 363 204 205 373 378 375 383 3 9 -125 142
-200 207 l-26 23 -30 -38z"/>
</g>
</svg>
